<?xml version="1.0" standalone="no"?>
<!DOCTYPE svg PUBLIC "-//W3C//DTD SVG 20010904//EN"
 "http://www.w3.org/TR/2001/REC-SVG-20010904/DTD/svg10.dtd">
<svg version="1.0" xmlns="http://www.w3.org/2000/svg"
 width="681.000000pt" height="681.000000pt" viewBox="0 0 681.000000 681.000000"
 preserveAspectRatio="xMidYMid meet">
<metadata>
Created by potrace 1.14, written by Peter Selinger 2001-2017
</metadata>
<g transform="translate(0.000000,681.000000) scale(0.100000,-0.100000)"
fill="#000000" stroke="none">
<path d="M3343 6743 c-29 -32 -62 -70 -75 -85 -13 -16 -41 -49 -63 -74 -54
-62 -73 -84 -120 -139 -22 -26 -47 -55 -55 -65 -8 -10 -33 -39 -55 -66 -22
-27 -55 -65 -72 -85 -18 -20 -33 -39 -33 -43 0 -4 -11 -17 -25 -30 -14 -13
-25 -28 -25 -34 0 -6 -3 -12 -8 -14 -6 -2 -43 -45 -107 -125 -5 -7 -15 -19
-22 -27 -6 -7 -59 -74 -118 -147 -58 -74 -111 -141 -118 -149 -7 -8 -28 -35
-47 -60 -19 -25 -38 -46 -42 -48 -5 -2 -8 -10 -8 -18 0 -9 -4 -12 -10 -9 -5 3
-10 0 -10 -8 0 -8 -8 -23 -17 -35 -10 -11 -34 -41 -53 -67 -19 -25 -45 -57
-57 -70 -13 -13 -23 -29 -23 -35 0 -5 -4 -10 -8 -10 -4 0 -16 -15 -27 -32 -10
-18 -29 -46 -42 -61 -44 -54 -22 -89 62 -102 28 -5 55 -9 61 -10 6 -2 51 -10
100 -20 49 -9 96 -19 104 -22 8 -4 18 -7 23 -8 4 -2 9 -4 12 -5 6 -3 22 -7 35
-9 6 0 10 -5 10 -9 0 -4 -47 -16 -105 -26 -58 -11 -108 -23 -111 -28 -3 -4
-15 -8 -28 -8 -12 0 -26 -3 -30 -7 -3 -4 -13 -8 -22 -9 -20 -3 -215 -102 -235
-120 -8 -8 -21 -14 -27 -14 -7 0 -12 -4 -12 -10 0 -5 -18 -21 -40 -35 -48 -30
-202 -183 -227 -225 -9 -17 -21 -30 -25 -30 -4 0 -8 -6 -8 -14 0 -8 -4 -16 -9
-18 -4 -1 -20 -23 -34 -48 -75 -130 -107 -190 -107 -200 0 -5 -4 -10 -9 -10
-5 0 -17 -22 -27 -50 -10 -27 -21 -50 -25 -50 -5 0 -18 -33 -17 -43 0 -1 -18
-38 -40 -81 -23 -44 -39 -83 -36 -88 3 -4 1 -8 -3 -8 -9 0 -27 -39 -48 -101
-9 -28 -9 -40 0 -52 12 -17 65 -24 65 -9 0 9 89 48 102 44 5 -1 7 2 3 8 -3 5
1 10 10 10 9 0 26 6 38 14 36 23 87 30 87 13 0 -8 -10 -21 -23 -29 -67 -45
-221 -223 -309 -359 -44 -67 -111 -194 -134 -255 -9 -24 -20 -44 -23 -44 -4 0
-7 -8 -8 -18 -1 -9 -9 -37 -18 -62 -9 -25 -17 -52 -19 -60 -2 -8 -9 -35 -16
-60 -7 -25 -14 -54 -16 -65 -2 -11 -6 -31 -9 -45 -12 -55 -15 -78 -21 -138 -3
-35 -7 -73 -10 -85 -5 -28 -5 -283 0 -322 3 -16 8 -63 11 -104 3 -41 8 -77 10
-80 1 -3 6 -24 9 -46 3 -22 11 -62 16 -90 6 -27 12 -61 15 -75 8 -41 26 -78
41 -84 19 -7 63 41 52 57 -1 1 5 13 12 27 8 14 15 32 16 40 2 8 7 23 12 35 24
52 62 151 62 163 0 6 5 12 10 12 6 0 10 5 10 11 0 21 69 159 79 159 11 0 6
-72 -9 -125 -11 -38 -23 -198 -22 -295 1 -91 10 -229 16 -238 2 -4 7 -32 11
-62 7 -63 30 -165 52 -230 8 -25 17 -56 19 -69 3 -13 11 -36 19 -52 8 -15 15
-33 15 -39 0 -23 113 -235 171 -322 33 -50 88 -123 121 -162 63 -73 208 -216
219 -216 3 0 19 -11 35 -25 43 -38 48 -41 82 -59 28 -14 32 -14 46 0 24 23 21
46 -15 129 -13 29 -61 185 -66 217 -3 16 -1 28 4 28 10 0 73 -85 73 -99 0 -4
9 -16 20 -26 11 -10 20 -23 20 -29 0 -6 18 -29 40 -51 21 -22 39 -43 40 -48 1
-16 170 -177 245 -232 22 -17 47 -36 55 -44 8 -8 28 -20 45 -28 31 -14 66 -34
75 -43 6 -6 103 -53 155 -75 22 -9 49 -20 60 -25 63 -28 217 -64 327 -76 75
-9 376 -9 467 -1 125 12 130 62 11 123 -30 15 -57 31 -60 34 -3 3 -22 14 -42
23 -67 31 -45 46 40 27 23 -6 57 -12 75 -15 17 -2 50 -7 72 -11 22 -4 91 -7
154 -8 151 -3 278 14 436 57 22 6 46 12 54 13 7 1 18 7 24 13 6 6 18 11 27 11
8 0 42 13 75 29 33 15 75 34 92 42 18 8 33 18 33 22 0 5 4 6 9 3 5 -3 14 1 21
9 7 8 17 15 22 15 5 0 24 11 42 25 18 14 37 25 43 25 5 0 20 11 33 25 13 14
29 25 36 25 7 0 14 3 16 8 2 4 26 25 53 47 88 70 268 256 374 385 11 14 25 30
31 37 5 7 10 17 10 23 0 5 3 10 8 10 12 0 42 60 42 85 0 36 -30 39 -104 9 -36
-15 -69 -25 -72 -21 -3 3 36 48 88 99 112 112 188 199 188 216 0 6 4 12 8 12
11 0 126 193 157 265 15 33 31 69 36 80 13 28 69 186 75 210 3 11 7 36 9 55 3
19 8 48 12 65 14 63 12 49 29 210 8 76 8 259 0 322 -4 26 -8 81 -11 121 -2 39
-6 76 -9 80 -4 7 -12 68 -21 162 -2 19 -4 35 -5 35 -3 0 -12 50 -13 73 -1 12
-7 22 -14 22 -6 0 -16 7 -21 16 -8 14 -12 13 -33 -8 -13 -12 -25 -29 -27 -36
-1 -7 -11 -32 -21 -55 -38 -82 -54 -122 -53 -129 1 -5 -3 -8 -8 -8 -6 0 -10
-5 -10 -12 0 -11 -109 -238 -120 -248 -3 -3 -25 -43 -49 -90 -24 -47 -59 -106
-77 -133 -18 -26 -36 -56 -39 -67 -4 -11 -11 -20 -16 -20 -5 0 -9 -5 -9 -11 0
-5 -19 -37 -42 -71 -24 -33 -52 -74 -62 -92 -11 -17 -30 -41 -43 -53 -13 -12
-23 -25 -23 -28 0 -8 -119 -154 -180 -219 -73 -79 -115 -120 -189 -186 -58
-52 -81 -71 -129 -112 -37 -30 -174 -122 -231 -155 -193 -110 -382 -183 -581
-223 -143 -29 -217 -35 -410 -34 -150 1 -177 4 -295 34 -71 18 -142 38 -157
46 -14 8 -46 21 -71 29 -162 55 -430 255 -535 400 -20 28 -39 52 -42 55 -13
10 -90 132 -90 142 0 5 -8 22 -18 36 -18 25 -66 144 -90 222 -29 93 -50 231
-54 355 0 28 13 212 17 233 42 206 80 353 111 419 8 17 14 38 14 46 0 9 4 18
9 22 5 3 13 19 16 36 13 56 75 199 165 379 85 169 103 202 125 235 12 17 27
44 35 60 8 17 43 76 77 131 35 56 63 105 63 110 0 4 8 17 18 28 10 12 38 53
62 91 24 39 46 72 49 75 3 3 24 31 46 64 21 32 51 73 65 92 14 18 39 53 55 76
48 67 149 202 156 208 3 3 19 25 36 50 17 25 41 55 52 68 12 12 19 22 16 22
-3 0 4 10 15 23 12 12 27 29 33 37 123 148 152 180 162 180 7 0 39 -33 71 -72
66 -81 59 -72 149 -188 36 -47 78 -101 93 -120 16 -19 37 -48 48 -65 10 -16
21 -32 24 -35 12 -12 60 -79 60 -85 0 -4 16 -26 35 -49 19 -24 35 -48 35 -54
0 -6 4 -12 8 -14 5 -1 40 -50 77 -108 38 -58 73 -106 77 -108 4 -2 8 -10 8
-17 0 -8 6 -20 13 -27 20 -21 175 -282 197 -330 11 -25 28 -55 38 -69 10 -13
34 -55 53 -94 19 -38 37 -72 40 -75 21 -19 209 -468 209 -500 0 -9 4 -20 8
-25 12 -13 47 -129 71 -235 28 -117 32 -138 38 -190 9 -74 56 -106 87 -57 33
53 100 278 113 377 2 19 8 58 13 85 20 111 29 432 16 575 -3 30 -8 84 -10 120
-3 36 -8 76 -10 90 -3 14 -8 45 -10 70 -3 25 -7 55 -10 66 -2 12 -7 37 -10 55
-9 53 -16 90 -27 139 -6 25 -13 56 -15 70 -11 64 -69 277 -106 395 -23 72 -43
135 -44 140 -4 15 -63 177 -74 200 -5 11 -27 67 -50 125 -71 180 -243 544
-271 575 -5 5 -9 17 -9 26 0 10 -4 19 -8 21 -10 4 -142 225 -142 238 0 5 -4
10 -8 10 -4 0 -16 15 -27 33 -10 17 -21 34 -24 37 -3 3 -35 48 -70 100 -36 52
-67 97 -71 100 -3 3 -21 25 -40 50 -19 25 -37 47 -40 50 -3 3 -30 34 -60 70
-77 91 -199 208 -270 261 -57 42 -160 99 -178 99 -10 0 -41 -26 -69 -57z"/>
<path d="M3346 3930 c-22 -4 -35 -17 -57 -58 -15 -29 -28 -55 -27 -58 0 -5 -9
-30 -47 -129 -13 -33 -33 -87 -45 -120 -13 -33 -29 -74 -37 -92 -8 -17 -16
-40 -18 -50 -2 -10 -4 -19 -5 -20 -2 -2 -3 -6 -5 -10 -1 -5 -7 -21 -14 -38
-15 -39 -68 -176 -92 -240 -10 -27 -24 -63 -30 -80 -7 -16 -13 -32 -14 -35 -1
-3 -5 -14 -9 -25 -4 -11 -12 -33 -18 -50 -5 -16 -14 -39 -19 -50 -9 -19 -26
-65 -90 -240 -16 -44 -34 -91 -40 -105 -7 -14 -16 -34 -21 -45 -5 -12 -10 -27
-12 -35 -2 -8 -8 -28 -15 -45 -6 -16 -16 -43 -22 -60 -6 -16 -15 -39 -19 -50
-4 -11 -14 -36 -20 -55 -7 -19 -19 -48 -26 -65 -34 -78 -53 -150 -44 -159 10
-10 222 -17 247 -9 11 4 44 82 96 228 14 39 41 113 60 165 19 52 41 112 48
133 8 23 21 39 34 42 11 3 180 4 375 2 l355 -2 13 -29 c8 -15 15 -33 17 -40 1
-6 5 -18 8 -26 17 -44 60 -187 60 -197 0 -7 4 -13 9 -13 4 0 8 -6 8 -14 0 -8
5 -27 12 -43 6 -15 12 -32 13 -38 8 -31 47 -142 55 -155 13 -22 290 -23 290
-2 0 13 -69 211 -90 257 -5 11 -16 45 -26 75 -9 30 -19 60 -23 65 -3 6 -6 15
-8 20 -1 6 -16 48 -33 95 -18 47 -36 96 -40 110 -4 14 -25 70 -45 125 -20 55
-38 105 -39 110 -2 6 -6 17 -9 25 -3 8 -17 49 -32 90 -15 41 -30 84 -35 95
-15 36 -62 165 -64 178 -2 6 -8 23 -13 37 -6 14 -28 72 -48 130 -20 58 -40
112 -43 120 -3 8 -6 17 -7 20 -4 13 -18 47 -25 65 -5 11 -20 54 -35 95 -53
147 -79 208 -90 203 -3 -2 -6 -3 -7 -2 -11 4 -220 3 -242 -1z m169 -496 c27
-82 55 -152 60 -156 6 -4 7 -8 3 -8 -4 0 11 -51 33 -112 78 -224 99 -290 102
-321 l2 -32 -270 -1 c-262 -1 -304 3 -288 30 4 6 8 13 8 16 0 3 5 19 11 35 7
17 24 64 39 105 14 41 30 84 35 95 12 29 86 233 101 280 7 22 16 45 20 50 3 6
14 35 24 65 24 75 44 112 58 107 6 -2 34 -71 62 -153z"/>
</g>
</svg>
